
        <svg xmlns="http://www.w3.org/2000/svg" xmlns:xlink="http://www.w3.org/1999/xlink" version="1.1" width="3187.5" height="1202.662849065445" viewBox="0 0 3187.5 1202.662849065445">
			
			<g transform="scale(9.375) translate(10, 10)">
				<defs id="SvgjsDefs1311"/><g id="SvgjsG1312" featureKey="tpnldm-0" transform="matrix(6.834085941314697,0,0,6.834085941314697,-4.100452425476756,22.755878461394218)" fill="#f6f5f5"><path d="M5.38 13 l0 4.7 q0 2.3 -2.24 2.3 l-0.3 0 q-1.2 0 -1.72 -0.61 t-0.52 -1.69 l0 -14.34 q0 -1.1 0.52 -1.7 t1.72 -0.6 l0.3 0 q2.24 0 2.24 2.3 l0 4.7 l-1.66 0 l0 -4.48 q0 -0.4 -0.16 -0.63 t-0.58 -0.23 t-0.57 0.23 t-0.15 0.63 l0 13.9 q0 0.4 0.15 0.63 t0.57 0.23 t0.58 -0.23 t0.16 -0.63 l0 -4.48 l1.66 0 z M11.36 3.3599999999999994 l0 14.34 q0 2.3 -2.24 2.3 l0.88 0 l-1.18 0 q-1.2 0 -1.72 -0.61 t-0.52 -1.69 l0 -14.34 q0 -1.1 0.52 -1.7 t1.72 -0.6 l0.98 0 l-0.68 0 q2.24 0 2.24 2.3 z M9.700000000000001 3.5799999999999983 q0 -0.4 -0.16 -0.63 t-0.58 -0.23 t-0.57 0.23 t-0.15 0.63 l0 13.9 q0 0.4 0.15 0.63 t0.57 0.23 t0.58 -0.23 t0.16 -0.63 l0 -13.9 z M18.8 20 l0.1 -16.5 l-1.56 16.5 l-1.66 0 l-1.56 -16.5 l0.1 16.5 l-1.66 0 l0 -18.68 l3.12 0 l0.82 11.72 l0.84 -11.72 l3.12 0 l0 18.68 l-1.66 0 z M26.46 3.6400000000000006 l0 2.8 q0 1.04 -0.16 1.72 t-0.51 1.31 t-1.15 1.75 q-0.82 1.12 -1.07 1.7 t-0.25 1.5 l0 5.58 l-1.66 0 l0 -18.68 l2.56 0 q2.24 0 2.24 2.32 z M23.32 2.9800000000000004 l0 7.2 q0.18 -0.24 0.2 -0.26 q0.8 -1.1 1.04 -1.7 t0.24 -1.56 l0 -2.82 q0 -0.4 -0.16 -0.63 t-0.58 -0.23 l-0.74 0 z M30.980000000000004 1.3200000000000003 l0 18.68 l-1.66 0 l0 -15.9 l-1.66 0.02 q0.1 -0.14 0.45 -0.62 t0.57 -0.86 q0.52 -0.86 0.62 -1.32 l1.68 0 z M36.980000000000004 3.4800000000000004 l0 14.22 q0 2.3 -2.24 2.3 l-0.32 0 q-2.24 0 -2.24 -2.3 l0 -14.22 q0 -2.32 2.24 -2.32 l0.32 0 q2.24 0 2.24 2.32 z M35.32 3.6799999999999997 q0 -0.4 -0.16 -0.62 t-0.58 -0.22 t-0.58 0.22 t-0.16 0.62 l0 13.8 q0 0.4 0.16 0.63 t0.58 0.23 t0.58 -0.23 t0.16 -0.63 l0 -13.8 z M39.86 2.9800000000000004 l0 3.68 q0 0.96 0.24 1.56 t1.04 1.7 q0.8 1.12 1.16 1.74 t0.52 1.29 t0.16 1.71 l0 3.04 q0 2.3 -2.24 2.3 l-0.3 0 q-1.2 0 -1.72 -0.61 t-0.52 -1.69 l0 -4.66 l1.66 0 l0 4.44 q0 0.4 0.15 0.63 t0.57 0.23 q0.44 0 0.59 -0.23 t0.15 -0.63 l0 -3.06 q0 -0.92 -0.25 -1.5 t-1.05 -1.7 q-0.8 -1.1 -1.16 -1.74 t-0.51 -1.32 t-0.15 -1.72 l-0.02 -5.12 l4.8 0 l0 1.66 l-3.12 0 z M48.96 1.3200000000000003 l0 18.68 l-1.66 0 l0 -5.6 q0 -0.9 -0.25 -1.49 t-1.05 -1.69 q-0.8 -1.12 -1.15 -1.75 t-0.51 -1.31 t-0.16 -1.72 l0 -5.12 l1.66 0 l0 5.34 q0 0.96 0.24 1.56 t1.04 1.7 l0.18 0.26 l0 -8.86 l1.66 0 z"/></g>
			</g>
		</svg>
	